# xmcd
#
# Track frame offsets: 
#        300
#        25260
#        40444
#        49217
#        69513
#        83234
#        100617
#        121041
#        147323
#        160999
#        178244
#        191262
#        207036
#        226102
#        247064
#        260425
#
# Disc length: 3743 seconds
#
# Revision: 6
# Processed by: cddbd v1.5.2PL0 Copyright (c) Steve Scherf et al.
# Submitted via: ExactAudioCopy v1.0b1
#
DISCID=da0e9b10
DTITLE=Big Mama Thornton - Ball N' Chain
DYEAR=1968
DGENRE=Unknown
TTITLE0=Sweet Little Angel
TTITLE1=Unlucky Girl
TTITLE2=Swing It On Home
TTITLE3=Little Red Rooster
TTITLE4=Hound Dog
TTITLE5=Your Love Is Where It Ought To Be
TTITLE6=School Boy
TTITLE7=My Heavy Load
TTITLE8=I'm Feeling Alright
TTITLE9=Sometimes I Have A Heartache
TTITLE10=Black Rat
TTITLE11=Life Goes On
TTITLE12=Bumble Bee
TTITLE13=Gimme A Penny
TTITLE14=Wade In The Water
TTITLE15=Ball N' Chain
EXTD=
EXTT0=
EXTT1=
EXTT2=
EXTT3=
EXTT4=
EXTT5=
EXTT6=
EXTT7=
EXTT8=
EXTT9=
EXTT10=
EXTT11=
EXTT12=
EXTT13=
EXTT14=
EXTT15=
PLAYORDER=
